<?xml version="1.0" encoding="UTF-8" standalone="no"?>
<svg
   xmlns:dc="http://purl.org/dc/elements/1.1/"
   xmlns:cc="http://creativecommons.org/ns#"
   xmlns:rdf="http://www.w3.org/1999/02/22-rdf-syntax-ns#"
   xmlns:svg="http://www.w3.org/2000/svg"
   xmlns="http://www.w3.org/2000/svg"
   version="1.1"
   id="svg6165"
   viewBox="0 0 221.71104 221.75049"
   height="62.582916mm"
   width="62.571781mm">
  <defs
     id="defs6167" />
  <metadata
     id="metadata6170">
    <rdf:RDF>
      <cc:Work
         rdf:about="">
        <dc:format>image/svg+xml</dc:format>
        <dc:type
           rdf:resource="http://purl.org/dc/dcmitype/StillImage" />
        <dc:title></dc:title>
      </cc:Work>
    </rdf:RDF>
  </metadata>
  <g
     transform="translate(287.99836,-164.3441)"
     id="layer1">
    <g
       id="g711"
       transform="translate(-1353.8743,158.57482)">
      <path
         d="m 1171.201,6.056 c -0.044,-0.195 0.09,-0.215 0.229,-0.229 19.061,-0.55 34.141,2.879 47.304,8.227 3.26,1.492 6.515,2.706 9.6,4.342 0.722,0.384 1.377,0.989 2.057,1.372 0.773,0.437 1.529,0.699 2.284,1.142 1.039,0.612 2.05,1.327 3.198,2.057 0.163,0.103 0.507,0.094 0.685,0.228 0.271,0.203 0.862,0.834 1.372,1.144 0.243,0.146 0.468,0.092 0.686,0.228 0.613,0.382 1.707,1.238 2.515,1.829 3.789,2.768 7.783,5.886 11.197,9.369 9.712,8.722 17.424,19.446 23.767,31.537 2.899,6.317 5.61,12.826 7.541,20.11 2.032,7.186 3.202,15.231 3.886,23.766 0.443,14.27 -1.412,26.49 -4.571,37.25 -2.035,6.931 -4.803,13.561 -7.997,19.654 -4.674,8.915 -10.537,16.949 -17.139,24.222 -9.07,9.366 -19.26,17.609 -31.767,23.539 -12.249,6.185 -26.2,10.667 -43.875,11.426 -8.97,0.742 -18.163,-0.273 -25.824,-1.601 -3.856,-0.791 -7.666,-1.625 -11.197,-2.742 -3.686,-0.885 -6.755,-2.386 -10.284,-3.428 -6.295,-2.922 -12.642,-5.791 -18.053,-9.599 -5.712,-3.503 -10.875,-7.558 -15.539,-12.111 -9.67,-8.765 -17.576,-19.293 -23.767,-31.535 -6.036,-12.4 -10.661,-26.21 -11.428,-43.877 -1.149,-18.593 2.679,-34.189 7.771,-47.304 5.347,-13.087 12.73,-24.138 21.479,-33.822 8.97,-9.466 19.4,-17.468 31.537,-23.767 12.558,-5.877 26.216,-10.653 43.876,-11.425 0.152,-0.002 0.305,-0.002 0.457,-0.002 z m 3.199,2.512 c -7.141,0.326 -12.285,2.648 -16.912,5.485 -2.255,1.477 -4.248,3.214 -6.169,5.027 -0.946,0.959 -1.663,2.147 -2.742,2.973 -0.191,0.724 -0.667,1.16 -1.144,1.599 0.168,0.623 -0.451,0.459 -0.457,0.914 0.01,0.334 -0.963,0.724 0,0.686 4.238,-0.037 8.146,-1.308 11.199,-2.514 0.316,-0.125 0.54,-0.299 0.912,-0.457 0.356,-0.15 0.847,-0.089 1.144,-0.228 0.978,-0.458 1.831,-1.178 2.514,-1.601 0.362,-0.224 0.837,-0.266 1.143,-0.456 1.028,-0.644 2.197,-1.47 3.2,-2.286 0.779,-0.633 1.453,-1.573 2.057,-2.058 0.251,-0.198 0.689,-0.232 0.914,-0.456 0.468,-0.468 0.68,-1.094 1.143,-1.599 0.459,-0.507 0.95,-0.866 1.372,-1.372 0.92,-1.109 1.926,-2.579 2.513,-3.658 -0.013,-0.138 -0.035,-0.27 -0.229,-0.226 -0.049,0.178 -0.192,0.266 -0.458,0.227 z m 4.114,0.458 c 6.061,8.824 14.463,15.328 28.106,16.225 0.473,-0.337 -0.776,-0.883 -0.684,-1.599 -0.477,-0.439 -0.953,-0.875 -1.144,-1.599 -1.079,-0.826 -1.795,-2.013 -2.741,-2.973 -1.988,-1.82 -3.923,-3.695 -6.399,-5.027 -4.525,-3.015 -9.848,-5.233 -17.139,-5.485 -0.014,-0.138 -0.035,-0.27 -0.229,-0.226 -0.01,0.314 0.11,0.5 0.23,0.684 z m -2.286,1.601 c -1.813,3.745 -2.981,8.138 -3.429,13.253 0,1.447 0,2.894 0,4.342 0.342,2.63 0.646,5.298 1.372,7.541 0.763,2.285 1.316,4.78 2.743,6.399 1.84,-4.024 3.244,-8.485 3.656,-13.939 0.26,-7.499 -1.354,-13.118 -3.656,-18.053 -0.013,-0.141 -0.035,-0.271 -0.228,-0.229 -0.321,0.059 -0.261,0.501 -0.458,0.686 z m -35.193,16.224 c -6.417,0.667 -11.391,2.777 -15.538,5.714 -4.364,2.796 -7.939,6.38 -10.514,10.968 13.925,-1.232 22.656,-7.663 28.565,-16.911 -0.937,-0.022 -1.872,-0.044 -2.513,0.229 z m 5.942,0.458 c 6.008,8.77 14.493,15.063 28.109,16.225 -1.172,-2.48 -2.955,-4.556 -4.8,-6.399 -1.858,-1.861 -3.946,-3.542 -6.17,-5.028 -4.761,-2.854 -10.059,-5.174 -17.367,-5.483 -0.139,0.012 -0.271,0.034 -0.229,0.228 0.255,0.048 0.356,0.253 0.457,0.457 z m 57.36,-0.458 c -3.255,0.249 -6.043,0.965 -8.455,2.057 -2.744,0.837 -5.099,2.062 -7.085,3.657 -2.439,1.14 -4.002,3.156 -5.94,4.796 -1.64,1.944 -3.523,3.641 -4.571,6.172 13.961,-1.2 22.546,-7.772 28.565,-16.911 -0.937,-0.022 -1.874,-0.044 -2.514,0.229 z m 34.05,16.683 c -2.618,-4.848 -6.594,-8.337 -10.971,-11.427 -4.828,-2.788 -10.051,-5.182 -17.366,-5.483 -0.139,0.012 -0.271,0.034 -0.229,0.228 6.117,8.964 14.65,15.515 28.566,16.682 z m -93.695,-14.855 c -1.787,3.471 -2.921,7.593 -3.428,12.341 -0.371,8.062 1.031,14.355 3.885,19.195 2.225,-4.554 3.766,-9.793 3.884,-16.453 -0.305,-6.17 -1.522,-11.426 -3.884,-15.54 -0.014,-0.139 -0.035,-0.271 -0.229,-0.228 0.011,0.314 -0.107,0.502 -0.228,0.685 z m 63.301,0 c -2.258,4.143 -3.451,9.347 -3.656,15.54 0.118,3.232 0.572,6.132 1.143,8.914 1.005,2.345 1.426,5.275 2.97,7.082 2.496,-5.197 4.131,-11.256 3.657,-19.423 -0.586,-4.823 -1.764,-9.052 -3.657,-12.569 -0.012,-0.139 -0.032,-0.271 -0.227,-0.228 -0.014,0.29 -0.293,0.315 -0.23,0.684 z m -97.578,16.226 c -6.796,0.442 -11.753,2.721 -16.228,5.484 -2.129,1.527 -4.323,2.988 -5.941,5.028 -1.89,1.766 -3.619,3.691 -4.798,6.168 7.237,-0.381 12.65,-2.585 17.368,-5.483 2.369,-1.44 4.251,-3.368 6.396,-5.028 0.641,-1.263 1.876,-1.935 2.514,-3.199 0.614,-0.377 0.823,-1.159 1.372,-1.6 0.12,-0.337 0.338,-0.576 0.456,-0.914 0.24,-0.094 0.805,-0.885 0,-0.687 -0.151,0 -0.304,0 -0.456,0 -0.291,0.015 -0.315,0.295 -0.683,0.231 z m 5.025,0.457 c 1.233,2.423 3.093,4.221 4.8,6.169 1.949,1.708 3.936,3.376 6.17,4.8 4.661,2.728 9.903,4.873 16.911,5.254 0.472,-0.34 -0.634,-1.026 -0.685,-1.599 -0.413,-0.502 -0.894,-0.936 -1.145,-1.6 -0.973,-0.932 -1.738,-2.069 -2.739,-2.97 -1.773,-2.04 -4.126,-3.494 -6.171,-5.257 -2.557,-1.253 -5.011,-2.609 -7.771,-3.657 -2.969,-0.917 -6.226,-1.545 -9.827,-1.829 -0.01,0.396 0.177,0.589 0.457,0.689 z m 58.274,-0.457 c -8.716,0.575 -14.491,4.094 -19.881,7.998 -1.275,1.466 -2.646,2.837 -4.113,4.113 -0.487,0.883 -1.079,1.664 -1.829,2.285 0,0.683 -0.594,0.776 -0.684,1.372 -0.304,0.003 -0.211,0.401 -0.458,0.457 -0.05,0.288 -0.356,0.468 0.228,0.457 3.609,-0.2 6.747,-0.872 9.599,-1.827 2.862,-0.949 5.289,-2.33 7.771,-3.656 2.098,-1.708 4.501,-3.117 6.171,-5.255 1.139,-0.765 1.773,-2.035 2.741,-2.972 0.322,-0.593 0.773,-1.056 1.143,-1.6 0,-0.455 0.623,-0.291 0.456,-0.914 0.398,0.067 0.803,-0.886 0,-0.687 -0.151,0 -0.305,0 -0.456,0 -0.294,0.013 -0.319,0.293 -0.688,0.229 z m 4.8,0.457 c 6.064,8.713 14.338,15.216 28.106,16.224 0.486,-0.073 -0.327,-0.707 -0.455,-0.914 -0.093,-0.595 -0.682,-0.689 -0.686,-1.372 -0.749,-0.622 -1.342,-1.402 -1.827,-2.285 -1.467,-1.276 -2.837,-2.646 -4.114,-4.113 -2.853,-2.024 -5.739,-4.01 -9.142,-5.485 -3.512,-1.439 -7.504,-2.396 -12.111,-2.742 -0.01,0.315 0.109,0.503 0.229,0.687 z m 31.307,16.224 c 7.251,-0.365 12.711,-2.523 17.368,-5.483 2.43,-1.379 4.375,-3.244 6.398,-5.028 0.794,-1.11 1.967,-1.843 2.513,-3.199 0.662,-0.33 0.883,-1.099 1.372,-1.6 0,-0.455 0.623,-0.291 0.456,-0.914 0.398,0.067 0.804,-0.886 0,-0.687 -13.669,1.336 -22.301,7.712 -28.107,16.911 z m 60.102,0 c -1.172,-2.56 -3.104,-4.36 -4.799,-6.398 -1.993,-1.815 -3.979,-3.638 -6.398,-5.027 -4.568,-2.975 -10.132,-4.952 -17.14,-5.485 -0.14,0.013 -0.271,0.036 -0.229,0.229 6.19,8.892 14.493,15.673 28.566,16.681 z M 1113.156,46.734 c -2.08,3.861 -3.231,8.652 -3.657,14.167 0.04,3.542 0.196,6.965 1.144,9.598 0.111,1.641 0.692,2.812 1.143,4.114 0.503,1.326 0.877,2.779 1.827,3.657 2.463,-5.154 4.108,-11.127 3.657,-19.197 -0.569,-4.915 -1.836,-9.134 -3.657,-12.797 -0.013,-0.139 -0.032,-0.272 -0.229,-0.229 -0.013,0.292 -0.292,0.317 -0.228,0.687 z m 126.373,0 c -1.707,3.625 -2.943,7.72 -3.429,12.567 -0.344,7.963 1.063,14.175 3.885,18.968 2.466,-4.695 3.959,-10.362 3.886,-17.597 -0.494,-5.6 -1.69,-10.499 -3.886,-14.397 -0.011,-0.139 -0.034,-0.272 -0.228,-0.229 0.011,0.315 -0.107,0.502 -0.228,0.688 z m -63.301,0.227 c -1.843,3.72 -3.006,8.115 -3.429,13.254 0,1.449 0,2.896 0,4.342 0.311,2.661 0.691,5.252 1.372,7.542 0.489,0.958 0.549,2.347 1.145,3.2 0.155,0.607 0.358,1.164 0.686,1.599 0.2,0.561 0.204,1.317 0.913,1.372 2.187,-5.125 4.008,-10.617 3.656,-18.282 -0.468,-5.246 -1.713,-9.715 -3.656,-13.483 -0.013,-0.14 -0.035,-0.271 -0.228,-0.229 -0.322,0.059 -0.262,0.501 -0.459,0.685 z m -92.323,16.683 c 1.011,2.188 2.77,3.627 4.112,5.485 6.031,5.396 12.776,10.076 23.768,10.512 -0.52,-1.31 -1.293,-2.365 -2.286,-3.199 -0.599,-1.229 -1.485,-2.169 -2.515,-2.971 -1.718,-2.014 -3.853,-3.61 -6.168,-5.027 -4.677,-2.941 -9.97,-5.268 -17.368,-5.486 -0.013,0.392 0.176,0.585 0.457,0.686 z m 56.674,-0.457 c -6.346,0.662 -11.071,2.945 -15.312,5.712 -4.115,2.893 -7.636,6.381 -10.284,10.741 7.406,-0.136 12.541,-2.542 17.368,-5.256 4.456,-3.085 8.34,-6.742 11.197,-11.427 -1.052,0.013 -2.232,-0.101 -2.969,0.23 z m 6.398,0.457 c 2.916,4.474 6.737,8.042 11.199,10.969 4.599,2.485 10.174,5.215 16.91,4.8 -0.768,-1.026 -1.434,-2.135 -2.287,-3.2 -0.391,-0.49 -0.937,-0.865 -1.369,-1.372 -0.464,-0.542 -0.68,-1.145 -1.144,-1.599 -0.154,-0.153 -0.722,-0.284 -0.914,-0.458 -0.126,-0.115 -0.089,-0.335 -0.228,-0.457 -0.704,-0.61 -1.197,-1.096 -1.829,-1.599 -0.52,-0.417 -1.104,-0.788 -1.599,-1.143 -0.297,-0.214 -0.384,-0.463 -0.686,-0.687 -0.281,-0.205 -0.806,-0.238 -1.144,-0.456 -0.255,-0.167 -0.462,-0.543 -0.686,-0.685 -0.325,-0.208 -0.632,-0.298 -0.913,-0.458 -4.141,-2.336 -9.716,-4.236 -15.54,-4.343 -0.139,0.015 -0.271,0.035 -0.229,0.229 0.257,0.05 0.358,0.255 0.459,0.459 z m 56.902,-0.457 c -9.008,0.972 -14.948,5.007 -20.337,9.598 -1.79,2.25 -3.933,4.142 -5.257,6.856 14.237,-0.844 22.456,-7.71 28.565,-16.683 -1.054,0.012 -2.234,-0.102 -2.971,0.229 z m 34.279,16.453 c 0.344,-0.582 -0.957,-1.472 -1.144,-2.285 -0.848,-0.446 -1.034,-1.555 -1.828,-2.056 -1.16,-1.507 -2.724,-2.608 -3.886,-4.114 -2.904,-1.971 -5.586,-4.162 -9.139,-5.485 -3.524,-1.427 -7.249,-2.653 -12.112,-2.743 -0.139,0.015 -0.271,0.035 -0.229,0.229 6.247,8.686 14.243,15.62 28.338,16.454 z m 28.794,-16.453 c -6.194,0.74 -10.956,2.909 -15.082,5.712 -4.208,2.801 -7.793,6.223 -10.284,10.741 11.12,-0.458 17.943,-5.214 23.995,-10.741 1.426,-2.001 3.271,-3.584 4.342,-5.942 -1.055,0.013 -2.235,-0.101 -2.971,0.23 z m -185.561,1.829 c -2.341,4.895 -3.767,10.705 -3.427,18.281 0.644,5.069 1.829,9.595 3.884,13.255 2.13,-3.964 3.412,-8.774 3.886,-14.397 0.205,-7.29 -1.429,-12.741 -3.656,-17.598 -0.015,-0.139 -0.034,-0.271 -0.229,-0.227 -0.324,0.058 -0.26,0.499 -0.458,0.686 z m 63.301,0 c -1.806,3.372 -2.862,7.498 -3.428,12.111 -0.403,8.172 1.057,14.482 3.885,19.425 2.176,-4.53 3.728,-9.68 3.884,-16.227 -0.273,-6.278 -1.479,-11.622 -3.884,-15.769 -0.014,-0.139 -0.035,-0.271 -0.229,-0.227 -0.011,0.293 -0.293,0.317 -0.228,0.687 z m 63.301,0 c -2.295,4.104 -3.429,9.368 -3.656,15.538 0.108,3.244 0.604,6.098 1.143,8.913 0.582,1.094 0.701,2.65 1.371,3.657 0.433,1.244 0.746,2.605 1.599,3.429 1.699,-3.863 3.161,-7.962 3.657,-13.028 0.407,-7.946 -1.006,-14.076 -3.657,-18.967 -0.012,-0.139 -0.032,-0.271 -0.227,-0.227 -0.014,0.291 -0.293,0.315 -0.23,0.685 z m 63.072,0 c -2.135,4.796 -3.65,10.212 -3.427,17.367 0.334,2.711 0.648,5.445 1.37,7.77 0.764,2.284 1.314,4.778 2.743,6.399 0.63,-2.188 1.758,-3.88 2.285,-6.171 0.653,-2.239 1.042,-4.747 1.37,-7.313 0.345,-7.733 -1.23,-13.546 -3.655,-18.511 -0.013,-0.139 -0.035,-0.271 -0.23,-0.227 -0.32,0.058 -0.259,0.499 -0.456,0.686 z m -161.338,16.223 c -3.299,0.282 -6.187,0.975 -8.683,2.058 -2.671,0.909 -5.063,2.097 -7.085,3.655 -2.349,1.232 -4.035,3.127 -5.941,4.8 -1.638,1.942 -3.521,3.639 -4.569,6.171 7.169,-0.448 12.596,-2.64 17.368,-5.484 3.393,-2.322 6.436,-4.99 8.91,-8.228 0.552,-0.44 0.761,-1.223 1.372,-1.6 -0.165,-0.623 0.454,-0.459 0.456,-0.914 0,-0.334 0.963,-0.724 0,-0.685 -0.784,-0.101 -1.279,0.09 -1.828,0.227 z m 5.713,0.458 c 1.246,2.411 3.125,4.188 4.8,6.171 2.056,1.674 3.965,3.5 6.397,4.799 4.464,2.928 9.989,4.79 16.911,5.256 -2.648,-4.816 -6.624,-8.306 -10.967,-11.426 -2.414,-1.32 -4.85,-2.616 -7.543,-3.657 -3.102,-0.858 -6.212,-1.709 -10.056,-1.827 -0.01,0.393 0.178,0.585 0.458,0.684 z m 31.08,16.225 c 3.452,-0.282 6.776,-0.691 9.371,-1.827 3.187,-0.622 5.336,-2.281 7.997,-3.429 2.023,-1.784 4.531,-3.086 6.171,-5.256 1.983,-1.824 3.787,-3.828 5.027,-6.399 -14.082,1.076 -22.631,7.687 -28.566,16.911 z m 32.224,-16.225 c 1.133,2.521 3.138,4.173 4.798,6.171 2.017,1.716 3.912,3.551 6.397,4.799 2.106,1.625 4.923,2.542 7.541,3.657 2.87,0.557 6.287,1.786 9.37,1.371 -6.181,-8.901 -14.491,-15.674 -28.565,-16.682 -0.012,0.393 0.176,0.585 0.459,0.684 z m 57.587,-0.458 c -3.393,0.19 -6.204,0.96 -8.685,2.058 -2.924,0.657 -4.805,2.356 -7.314,3.427 -1.833,1.748 -4.189,2.971 -5.711,5.027 -1.854,1.803 -3.551,3.763 -4.8,6.171 3.42,-0.313 6.796,-0.669 9.371,-1.827 2.988,-0.82 5.637,-1.979 7.769,-3.657 2.508,-1.302 4.569,-3.045 6.398,-5.027 1.98,-1.83 3.684,-3.934 5.027,-6.399 -0.831,-0.071 -1.487,0.036 -2.055,0.227 z m 5.484,0.458 c 6.02,8.757 14.433,15.121 28.107,16.226 -1.171,-2.481 -2.956,-4.556 -4.799,-6.399 -1.866,-1.866 -3.977,-3.495 -6.171,-5.027 -4.808,-2.811 -10.112,-5.123 -17.367,-5.484 -0.14,0.012 -0.271,0.034 -0.229,0.227 0.258,0.049 0.358,0.254 0.459,0.457 z m -128.659,1.37 c -2.156,3.785 -3.21,8.674 -3.657,14.168 0.016,3.565 0.239,6.925 1.144,9.599 0.111,1.638 0.692,2.811 1.143,4.114 0.563,1.264 0.858,2.795 1.827,3.655 2.466,-5.226 4.114,-11.273 3.657,-19.424 -0.64,-4.768 -1.826,-8.991 -3.657,-12.57 -0.013,-0.139 -0.032,-0.27 -0.229,-0.227 -0.013,0.292 -0.292,0.317 -0.228,0.685 z m 63.301,0 c -2.608,4.63 -3.889,10.585 -3.658,18.055 0.52,5.192 1.928,9.498 3.658,13.481 0.735,0.05 0.557,-0.814 0.913,-1.142 0.061,-0.704 0.497,-1.029 0.688,-1.6 0.267,-1.255 0.901,-2.145 1.14,-3.428 0.701,-2.272 1.02,-4.923 1.373,-7.541 0.287,-7.753 -1.333,-13.596 -3.884,-18.51 -0.267,0.038 -0.249,0.361 -0.23,0.685 z m 63.072,0 c -1.713,3.543 -2.877,7.636 -3.429,12.341 -0.35,8.044 1.058,14.331 3.885,19.195 2.438,-4.722 3.97,-10.352 3.886,-17.595 -0.449,-5.493 -1.651,-10.233 -3.656,-14.17 -0.013,-0.139 -0.035,-0.27 -0.229,-0.229 -0.011,-0.139 -0.034,-0.27 -0.228,-0.227 0.01,0.316 -0.108,0.504 -0.229,0.685 z m -155.853,16.684 c 5.96,8.818 14.321,15.234 28.109,16.224 -2.582,-4.884 -6.64,-8.291 -10.969,-11.425 -4.807,-2.66 -9.818,-5.113 -17.141,-5.255 -0.011,-0.14 -0.034,-0.272 -0.228,-0.229 -0.01,0.313 0.11,0.5 0.229,0.685 z m 58.961,-0.456 c -10.276,0.618 -16.803,4.982 -22.624,10.053 -1.691,2.196 -3.716,4.055 -5.029,6.627 7.217,-0.249 12.46,-2.47 17.14,-5.254 2.245,-1.487 4.484,-2.98 6.169,-5.028 2.152,-1.656 3.509,-4.109 5.257,-6.17 -0.051,-0.177 -0.01,-0.45 -0.228,-0.457 -0.294,0.013 -0.318,0.29 -0.685,0.229 z m 4.34,0.456 c 2.818,4.569 6.521,8.259 11.199,10.969 2.111,1.62 4.915,2.549 7.541,3.656 2.722,0.707 6.276,1.798 9.369,1.372 -5.999,-9.01 -14.585,-15.429 -28.337,-16.683 0.036,0.268 -0.04,0.649 0.228,0.686 z m 58.96,-0.456 c -7.027,0.361 -12.23,2.545 -16.683,5.483 -4.541,2.848 -8.28,6.497 -10.969,11.196 13.344,-0.744 22.251,-7.501 28.335,-16.224 0,-0.153 0,-0.306 0,-0.456 -0.012,-0.14 -0.031,-0.272 -0.226,-0.229 -0.05,0.178 -0.192,0.265 -0.457,0.23 z m 4.34,0.456 c 1.192,2.464 3.116,4.197 4.801,6.168 1.923,1.736 3.897,3.417 6.169,4.801 4.624,2.764 9.832,4.947 16.911,5.254 0.351,-0.289 -0.508,-1.307 -0.914,-1.598 -0.156,-0.835 -0.866,-1.114 -1.144,-1.829 -0.918,-1.063 -1.915,-2.045 -2.741,-3.2 -5.973,-5.147 -12.569,-9.674 -23.31,-10.053 -0.013,-0.14 -0.035,-0.272 -0.229,-0.229 -0.01,0.392 0.178,0.585 0.457,0.686 z m 58.96,-0.456 c -7.023,0.363 -12.282,2.491 -16.683,5.483 -2.422,1.232 -4.221,3.092 -6.169,4.799 -1.707,2.026 -3.651,3.813 -4.8,6.397 7.027,-0.36 12.413,-2.363 16.91,-5.254 2.453,-1.281 4.274,-3.191 6.4,-4.801 1.566,-2.162 3.678,-3.784 4.799,-6.397 0.138,-0.014 0.271,-0.034 0.228,-0.227 -0.014,-0.14 -0.034,-0.272 -0.228,-0.229 -0.05,0.177 -0.192,0.264 -0.457,0.229 z m 1.828,1.828 c -1.978,3.81 -3.2,8.379 -3.656,13.711 0,1.37 0,2.74 0,4.112 0.337,2.711 0.647,5.445 1.371,7.771 0.776,2.27 1.356,4.737 2.741,6.397 1.898,-4.12 3.485,-8.55 3.886,-14.168 0.271,-7.659 -1.216,-13.563 -3.886,-18.282 -0.013,-0.141 -0.033,-0.271 -0.229,-0.228 0.015,0.314 -0.105,0.502 -0.227,0.687 z m -189.674,0.227 c -1.736,3.52 -2.862,7.65 -3.427,12.341 0,1.827 0,3.655 0,5.485 0.341,2.551 0.595,5.192 1.371,7.31 0.353,1.095 0.597,2.298 1.142,3.2 0.176,0.586 0.229,1.296 0.686,1.6 0.2,0.562 0.207,1.318 0.915,1.371 1.972,-4.502 3.572,-9.377 3.656,-15.768 -0.054,-6.497 -1.509,-11.594 -3.656,-15.996 -0.015,-0.14 -0.034,-0.271 -0.229,-0.229 -0.324,0.059 -0.26,0.503 -0.458,0.686 z m 63.301,0 c -1.849,3.333 -2.833,7.525 -3.428,12.113 0,2.208 0,4.417 0,6.627 0.406,2.334 0.737,4.746 1.372,6.855 0.818,1.924 1.205,4.28 2.513,5.712 2.249,-4.306 4,-10.363 3.884,-16.682 -0.099,-5.486 -1.841,-11.777 -3.884,-15.081 -0.014,-0.14 -0.035,-0.271 -0.229,-0.229 -0.011,0.292 -0.293,0.315 -0.228,0.685 z m 63.301,0 c -2.266,3.905 -3.329,9.012 -3.656,14.854 0.081,3.347 0.419,6.437 1.143,9.141 0.767,2.662 1.418,5.439 2.97,7.312 2.588,-5.106 4.096,-11.291 3.657,-19.423 -0.616,-4.565 -1.722,-8.636 -3.429,-12.111 -0.012,-0.141 -0.034,-0.272 -0.229,-0.229 -0.012,-0.14 -0.032,-0.271 -0.227,-0.229 -0.013,0.292 -0.292,0.315 -0.229,0.685 z m -98.266,16.224 c -9.654,0.858 -15.906,5.117 -21.48,10.057 -0.671,1.232 -1.898,1.908 -2.513,3.198 -0.722,0.269 -0.795,1.186 -1.371,1.599 -0.199,0.501 -1.221,1.353 -0.687,1.829 6.902,-0.715 12.727,-2.507 17.141,-5.713 2.523,-1.284 4.378,-3.238 6.396,-5.027 0.797,-1.11 1.966,-1.842 2.514,-3.2 0.578,-0.336 0.946,-0.882 1.145,-1.599 0.526,0.068 0.254,-0.661 0.684,-0.685 0,-0.335 0.963,-0.725 0,-0.687 -0.785,-0.1 -1.28,0.091 -1.829,0.228 z m 33.822,16.683 c -2.655,-4.811 -6.576,-8.354 -10.967,-11.425 -4.798,-2.82 -10.055,-5.184 -17.369,-5.485 -0.14,0.012 -0.27,0.035 -0.229,0.228 6.077,9.006 14.662,15.503 28.565,16.682 z m 29.25,-16.683 c -6.531,0.629 -11.499,2.821 -15.768,5.715 -2.26,1.318 -4.013,3.146 -5.941,4.799 -0.692,1.056 -1.701,1.8 -2.284,2.97 -0.697,0.832 -2.227,2.034 -1.829,3.199 6.798,-0.667 12.388,-2.543 16.911,-5.484 4.536,-3.005 8.505,-6.578 11.198,-11.426 -0.883,-0.044 -1.685,-0.008 -2.287,0.227 z m 33.821,16.683 c -0.236,-1.59 -1.409,-2.243 -2.056,-3.428 -0.967,-0.937 -1.603,-2.205 -2.741,-2.97 -1.764,-1.969 -3.848,-3.618 -6.171,-5.027 -4.594,-2.948 -9.992,-5.089 -17.139,-5.485 -0.141,0.012 -0.27,0.035 -0.229,0.228 5.98,9.029 14.568,15.444 28.336,16.682 z m 29.252,-16.683 c -6.581,0.577 -11.324,2.996 -15.767,5.715 -2.035,1.546 -4.127,3.033 -5.714,5.025 -1.058,0.697 -1.661,1.845 -2.513,2.744 -0.371,0.544 -0.822,1.007 -1.145,1.599 -0.101,0.523 -1.262,1.155 -0.685,1.6 13.746,-1.336 22.511,-7.653 28.337,-16.911 -0.935,-0.023 -1.87,-0.043 -2.513,0.228 z m 5.943,0.459 c 6.016,8.763 14.505,15.049 28.107,16.224 -1.081,-2.652 -3.022,-4.441 -4.799,-6.398 -1.941,-1.866 -3.865,-3.752 -6.398,-5.027 -0.927,-0.903 -2.258,-1.399 -3.429,-2.057 -1.333,-0.571 -2.572,-1.235 -4.113,-1.598 -2.882,-1.112 -6.329,-1.708 -9.598,-1.83 -0.01,0.314 0.108,0.502 0.23,0.686 z m -128.659,1.37 c -2.439,4.417 -3.686,10.027 -3.657,16.911 0.364,2.758 0.561,5.686 1.372,7.997 0.688,2.438 1.349,4.899 2.741,6.628 1.704,-3.858 3.125,-7.997 3.657,-13.026 0.391,-7.932 -1.094,-13.99 -3.657,-18.967 -0.013,-0.139 -0.032,-0.271 -0.229,-0.229 -0.265,0.039 -0.247,0.363 -0.227,0.686 z m 63.072,0 c -1.75,3.735 -2.94,8.028 -3.429,13.025 0,1.524 0,3.048 0,4.572 0.402,2.494 0.465,5.326 1.372,7.312 0.426,2.545 1.628,4.314 2.286,6.628 0.768,0.008 0.465,-1.057 0.913,-1.372 0.31,-0.454 0.438,-1.087 0.688,-1.599 0.427,-1.096 0.812,-2.236 1.14,-3.429 0.82,-2.227 1.049,-5.044 1.373,-7.771 0,-1.523 0,-3.046 0,-4.571 -0.564,-5.071 -1.79,-9.482 -3.656,-13.253 -0.013,-0.139 -0.035,-0.271 -0.228,-0.229 -0.322,0.063 -0.262,0.503 -0.459,0.687 z m 63.301,0 c -2.463,4.926 -3.814,10.963 -3.429,18.74 0.707,4.854 1.798,9.323 3.885,12.796 2.148,-4.099 3.476,-9.018 3.886,-14.854 0,-7.008 -1.339,-12.678 -3.886,-17.139 -0.011,-0.139 -0.034,-0.271 -0.228,-0.229 0.011,0.316 -0.107,0.502 -0.228,0.686 z m -155.853,16.682 c 6.045,8.734 14.361,15.195 28.109,16.225 0.47,-0.338 -0.778,-0.885 -0.687,-1.599 -0.477,-0.439 -0.954,-0.876 -1.143,-1.6 -1.016,-0.888 -1.817,-1.992 -2.743,-2.971 -2.028,-1.781 -3.805,-3.813 -6.396,-5.027 -2.034,-1.776 -4.943,-2.674 -7.543,-3.886 -3.003,-0.88 -6.187,-1.582 -9.825,-1.828 -0.011,0.316 0.109,0.503 0.228,0.686 z m 58.273,-0.457 c -6.789,0.448 -11.727,2.746 -16.224,5.485 -4.306,3.009 -8.118,6.508 -10.742,11.197 7.24,-0.376 12.72,-2.515 17.368,-5.484 2.43,-1.379 4.374,-3.245 6.401,-5.028 0.759,-1.142 1.905,-1.901 2.512,-3.199 0.66,-0.328 0.881,-1.099 1.372,-1.599 0,-0.456 0.622,-0.29 0.456,-0.915 0.398,0.068 0.801,-0.887 0,-0.686 -0.151,0 -0.305,0 -0.456,0 -0.291,0.013 -0.317,0.294 -0.687,0.229 z m 33.137,16.683 c -1.133,-2.6 -3.128,-4.337 -4.8,-6.399 -1.896,-1.837 -4.015,-3.45 -6.17,-5.027 -4.771,-2.847 -10.224,-5.011 -17.367,-5.484 -0.139,0.013 -0.271,0.035 -0.229,0.229 6.137,8.944 14.502,15.663 28.566,16.681 z m 30.621,-16.911 c -0.291,0.012 -0.315,0.293 -0.686,0.229 -6.77,0.467 -11.586,2.888 -16.225,5.485 -4.049,3.189 -8.03,6.44 -10.512,11.197 10.506,-0.614 17.417,-4.824 23.31,-10.054 0.847,-1.211 2.02,-2.094 2.742,-3.428 0.616,-0.451 1.093,-1.041 1.37,-1.829 0.47,-0.063 0.457,-0.61 0.688,-0.915 0.238,-0.093 0.8,-0.887 0,-0.686 -0.229,0.001 -0.457,0.001 -0.687,0.001 z m 4.57,0.685 c 1.226,2.432 3.123,4.189 4.801,6.171 2.022,1.709 3.946,3.517 6.398,4.798 4.476,2.913 9.908,4.868 16.91,5.256 -1.071,-2.358 -2.942,-3.913 -4.342,-5.941 -5.994,-5.734 -13.192,-10.271 -24.224,-10.969 -0.01,0.394 0.178,0.586 0.457,0.685 z m 58.048,-0.457 c -6.789,0.526 -11.875,2.753 -16.228,5.712 -2.309,1.349 -4.272,3.04 -5.942,5.028 -1.159,0.667 -1.671,1.982 -2.741,2.743 -0.19,0.724 -0.666,1.16 -1.143,1.6 0.167,0.623 -0.454,0.46 -0.456,0.913 0,0.336 -0.965,0.725 0,0.686 7.081,-0.459 12.452,-2.631 17.138,-5.484 2.229,-1.58 4.48,-3.138 6.171,-5.255 1.097,-0.806 1.953,-1.857 2.741,-2.972 0.413,-0.5 0.894,-0.937 1.144,-1.599 0.431,-0.025 0.158,-0.757 0.687,-0.686 -0.107,-0.437 0.704,-0.983 -0.23,-0.915 -0.15,0 -0.305,0 -0.456,0 -0.293,0.013 -0.318,0.294 -0.685,0.229 z m -186.705,1.829 c -2.091,3.394 -3.044,7.926 -3.656,12.797 0,1.829 0,3.656 0,5.484 0.374,2.521 0.724,5.064 1.371,7.313 0.452,0.995 0.688,2.207 1.142,3.201 0.329,0.354 0.305,1.064 0.686,1.37 0.2,0.561 0.207,1.318 0.915,1.372 2.129,-5.109 3.926,-10.547 3.656,-18.054 -0.574,-5.367 -1.632,-10.253 -3.886,-13.94 -0.012,-0.14 -0.035,-0.27 -0.228,-0.229 0,0.229 0,0.457 0,0.686 z m 63.072,0 c -2.464,5.001 -3.861,11.068 -3.428,18.967 0.358,2.384 0.762,4.723 1.372,6.856 0.809,1.932 1.268,4.216 2.513,5.713 2.291,-4.415 3.701,-9.704 3.884,-16.226 -0.247,-6.302 -1.595,-11.506 -3.884,-15.768 -0.014,-0.14 -0.035,-0.27 -0.229,-0.229 0.011,0.314 -0.107,0.502 -0.228,0.687 z m 63.301,0 c -2.175,4.224 -3.46,9.337 -3.656,15.54 0.141,3.21 0.543,6.161 1.143,8.912 0.904,2.446 1.437,5.265 2.97,7.085 1.796,-3.691 3.11,-7.86 3.657,-12.797 0.442,-8.06 -1.091,-14.144 -3.657,-19.196 -0.012,-0.14 -0.032,-0.27 -0.227,-0.229 -0.014,0.292 -0.293,0.316 -0.23,0.685 z m 63.3,0 c -2.141,3.647 -3.149,8.427 -3.654,13.711 -0.117,3.696 0.284,6.874 0.912,9.826 0.633,2.949 1.802,5.359 2.742,7.999 0.735,0.047 0.558,-0.815 0.916,-1.144 0.249,-0.51 0.378,-1.145 0.687,-1.598 0.451,-0.994 0.688,-2.206 1.142,-3.201 0.627,-2.345 1.049,-4.891 1.37,-7.542 0,-1.827 0,-3.656 0,-5.484 -0.578,-4.983 -1.845,-9.275 -3.655,-13.025 -0.013,-0.14 -0.035,-0.27 -0.23,-0.229 -0.012,0.294 -0.294,0.318 -0.23,0.687 z m -162.479,16.453 c -6.199,0.733 -10.946,2.919 -15.083,5.713 -4.163,2.845 -7.79,6.226 -10.283,10.741 7.292,-0.173 12.4,-2.53 17.14,-5.256 4.554,-2.987 8.522,-6.561 11.197,-11.426 -1.055,0.012 -2.235,-0.102 -2.971,0.228 z m 34.507,16.454 c 0.472,-0.34 -0.634,-1.026 -0.685,-1.599 -0.479,-0.439 -0.953,-0.877 -1.145,-1.6 -1.018,-0.888 -1.816,-1.992 -2.739,-2.972 -1.935,-1.798 -3.843,-3.624 -6.171,-5.027 -4.726,-2.894 -9.976,-5.263 -17.369,-5.484 -0.14,0.014 -0.27,0.033 -0.229,0.228 6.225,8.705 14.252,15.61 28.338,16.454 z m 28.792,-16.454 c -6.265,0.82 -11.332,2.835 -15.311,5.942 -2.3,1.204 -4.069,2.937 -5.713,4.8 -1.079,0.671 -1.628,1.874 -2.513,2.742 -0.323,0.592 -0.773,1.055 -1.144,1.6 0,0.454 -0.624,0.289 -0.457,0.914 -0.35,0.004 -0.75,0.624 0,0.457 10.833,-0.518 17.538,-5.162 23.54,-10.512 1.506,-2.073 3.396,-3.762 4.569,-6.17 -1.053,0.011 -2.232,-0.103 -2.971,0.227 z m 34.507,16.454 c 0.473,-0.338 -0.776,-0.883 -0.684,-1.599 -0.722,-0.193 -0.65,-1.18 -1.372,-1.372 -0.548,-1.357 -1.718,-2.09 -2.513,-3.2 -1.917,-1.816 -3.976,-3.489 -6.17,-5.027 -4.813,-2.805 -9.987,-5.246 -17.368,-5.484 -0.141,0.014 -0.27,0.033 -0.229,0.228 6.146,8.786 14.257,15.606 28.336,16.454 z m 28.796,-16.454 c -6.209,0.723 -10.944,2.92 -15.084,5.713 -4.225,2.783 -7.752,6.263 -10.282,10.741 7.252,-0.213 12.371,-2.56 17.14,-5.256 4.453,-3.089 8.365,-6.717 11.197,-11.426 -1.055,0.012 -2.234,-0.102 -2.971,0.228 z m 6.627,0.458 c 2.59,4.722 6.704,7.92 10.969,10.969 4.803,2.51 9.726,4.9 16.911,5.027 -1.269,-2.615 -3.289,-4.481 -5.026,-6.628 -5.963,-5.159 -12.605,-9.639 -23.311,-10.054 -0.013,0.394 0.177,0.586 0.457,0.686 z m -128.887,1.37 c -2.447,4.407 -3.668,10.044 -3.657,16.91 0.364,2.76 0.561,5.688 1.372,7.999 0.793,2.331 1.329,4.918 2.741,6.628 1.713,-3.924 3.169,-8.106 3.657,-13.255 0.381,-7.846 -1.079,-13.85 -3.657,-18.738 -0.013,-0.14 -0.032,-0.271 -0.229,-0.229 -0.012,0.293 -0.291,0.317 -0.227,0.685 z m 63.072,0 c -2.169,4.838 -3.732,10.282 -3.429,17.596 0.448,5.344 1.84,9.742 3.658,13.712 0.735,0.048 0.557,-0.816 0.913,-1.142 0.31,-0.456 0.438,-1.089 0.688,-1.6 0.427,-1.096 0.812,-2.235 1.14,-3.428 0.82,-2.227 1.049,-5.046 1.373,-7.77 0.268,-7.429 -1.348,-12.973 -3.656,-17.824 -0.013,-0.14 -0.035,-0.271 -0.228,-0.229 -0.322,0.059 -0.262,0.5 -0.459,0.685 z m 63.301,0 c -2.477,4.836 -3.806,10.82 -3.429,18.51 0.661,4.978 1.791,9.485 3.885,13.027 2.092,-4.157 3.476,-9.019 3.886,-14.854 -0.01,-7 -1.313,-12.703 -3.886,-17.139 -0.011,-0.14 -0.034,-0.271 -0.228,-0.229 0.011,0.315 -0.107,0.501 -0.228,0.685 z m -155.853,16.683 c 3.063,4.405 6.626,8.306 11.428,10.969 2.099,1.632 4.949,2.513 7.541,3.656 2.846,0.58 6.32,1.752 9.368,1.37 -6.19,-8.89 -14.491,-15.672 -28.564,-16.682 -0.012,0.316 0.108,0.504 0.227,0.687 z m 57.589,-0.457 c -6.511,0.648 -11.504,2.817 -15.768,5.713 -4.308,2.853 -7.945,6.376 -10.514,10.97 14.005,-1.153 22.676,-7.644 28.565,-16.912 -0.882,-0.044 -1.683,-0.007 -2.283,0.229 z m 5.712,0.457 c 6.004,8.776 14.445,15.112 28.109,16.226 -1.138,-2.597 -3.061,-4.407 -4.8,-6.399 -1.894,-1.84 -3.952,-3.513 -6.17,-5.027 -4.714,-2.903 -10.159,-5.077 -17.367,-5.485 -0.139,0.013 -0.271,0.035 -0.229,0.229 0.255,0.047 0.356,0.252 0.457,0.456 z m 31.308,16.225 c 11.912,-0.81 19.402,-6.041 25.594,-12.57 0.396,-0.9 1.097,-1.494 1.601,-2.284 0.205,-0.404 0.552,-0.667 0.686,-1.144 0.122,-0.229 1.185,-1.009 0.229,-0.914 -13.81,1.198 -22.266,7.749 -28.11,16.912 z m 60.102,0 c -2.642,-4.824 -6.618,-8.313 -10.971,-11.426 -2.412,-1.32 -4.846,-2.617 -7.54,-3.656 -3.057,-0.827 -6.071,-1.699 -9.826,-1.829 -0.139,0.013 -0.271,0.035 -0.229,0.229 6.099,8.984 14.57,15.597 28.566,16.682 z m 2.97,0 c 3.439,-0.293 6.759,-0.709 9.368,-1.829 3.157,-0.653 5.348,-2.272 8,-3.428 2.06,-1.75 4.514,-3.104 6.171,-5.256 1.982,-1.824 3.788,-3.829 5.026,-6.399 -14.086,1.073 -22.58,7.735 -28.565,16.912 z m -96.665,-14.854 c -1.769,3.488 -2.916,7.595 -3.428,12.34 -0.371,8.062 1.031,14.356 3.885,19.195 2.27,-4.434 3.713,-9.693 3.884,-16.224 -0.251,-6.299 -1.568,-11.534 -3.884,-15.769 -0.014,-0.138 -0.035,-0.27 -0.229,-0.228 0.011,0.316 -0.107,0.502 -0.228,0.686 z m 59.645,15.996 c 0.392,6.162 1.631,11.473 4.112,15.54 1.747,-3.813 3.173,-7.949 3.657,-13.025 0.406,-7.948 -1.074,-14.009 -3.657,-18.968 -0.012,-0.138 -0.032,-0.27 -0.227,-0.228 -2.164,4.691 -3.844,9.867 -3.885,16.681 z m -88.897,0.687 c 1.167,2.489 3.096,4.216 4.8,6.169 1.983,1.748 3.88,3.585 6.397,4.799 2.01,1.65 4.817,2.495 7.314,3.657 3.034,0.697 5.875,1.588 9.597,1.6 -2.721,-4.82 -6.608,-8.476 -11.197,-11.427 -4.605,-3.012 -10.249,-4.986 -17.368,-5.485 -0.01,0.394 0.177,0.587 0.457,0.687 z m 58.731,-0.458 c -3.711,0.021 -6.472,0.993 -9.369,1.83 -2.741,0.99 -5.056,2.407 -7.541,3.657 -1.993,1.737 -4.339,3.124 -5.941,5.254 -1.159,0.667 -1.675,1.982 -2.742,2.742 -0.191,0.724 -0.667,1.161 -1.144,1.6 0.168,0.624 -0.451,0.46 -0.457,0.914 0.01,0.334 -0.963,0.725 0,0.686 13.844,-1.01 21.975,-7.736 28.109,-16.454 -0.053,-0.177 -0.01,-0.451 -0.229,-0.458 -0.292,0.013 -0.315,0.294 -0.686,0.229 z m 4.343,0.458 c 6.066,8.711 14.265,15.29 28.106,16.225 0.473,-0.338 -0.776,-0.885 -0.684,-1.6 -0.477,-0.439 -0.953,-0.876 -1.144,-1.6 -1.017,-0.887 -1.818,-1.992 -2.741,-2.97 -2.027,-1.782 -3.849,-3.772 -6.399,-5.026 -4.492,-3.201 -10.273,-5.117 -17.367,-5.715 -0.01,0.314 0.109,0.502 0.229,0.686 z m 59.187,-0.687 c -6.849,0.617 -12.279,2.651 -16.91,5.485 -2.248,1.483 -4.257,3.209 -6.17,5.025 -1.709,2.026 -3.673,3.796 -4.8,6.401 7.312,-0.308 12.771,-2.463 17.368,-5.485 2.476,-1.331 4.408,-3.207 6.398,-5.027 0.924,-0.98 1.726,-2.083 2.743,-2.972 0.153,-0.834 0.865,-1.114 1.142,-1.827 0,-0.456 0.623,-0.291 0.456,-0.914 0.398,0.067 0.804,-0.887 0,-0.687 -0.074,0.001 -0.151,0.001 -0.227,0.001 z m -61.244,2.286 c -2.488,4.749 -3.884,10.588 -3.658,18.055 0.344,2.551 0.597,5.192 1.372,7.311 0.245,1.203 0.52,2.376 1.145,3.199 0.291,1.156 0.616,2.278 1.371,2.97 2.551,-5.17 4.204,-11.016 3.884,-18.509 -0.521,-5.193 -1.698,-9.726 -3.656,-13.483 -0.013,-0.139 -0.035,-0.271 -0.228,-0.228 -0.014,0.291 -0.294,0.316 -0.23,0.685 z m -29.48,16.682 c 6.001,8.777 14.521,15.035 28.109,16.225 -1.11,-2.624 -3.043,-4.422 -4.8,-6.399 -1.878,-1.854 -3.88,-3.585 -6.17,-5.026 -4.721,-2.897 -10.037,-5.199 -17.367,-5.486 -0.139,0.015 -0.271,0.035 -0.229,0.229 0.255,0.049 0.356,0.254 0.457,0.457 z m 57.131,-0.457 c -6.447,0.638 -11.233,2.933 -15.54,5.712 -1.07,0.682 -2.04,1.464 -2.972,2.285 -0.633,0.276 -0.902,0.933 -1.368,1.373 -0.208,0.194 -0.65,0.201 -0.917,0.456 -0.052,0.052 -0.192,0.411 -0.228,0.457 -0.089,0.118 -0.338,0.139 -0.228,0.458 -0.99,0.764 -1.862,1.643 -2.515,2.741 -0.414,0.502 -0.892,0.938 -1.145,1.602 -0.249,0.374 -1.237,1.176 -0.684,1.599 13.767,-1.314 22.365,-7.799 28.337,-16.912 -0.993,-0.003 -2.055,-0.076 -2.74,0.229 z"
         id="path713"
         style="clip-rule:evenodd;fill-rule:evenodd" />
    </g>
  </g>
</svg>
